<svg width="68" height="68" viewBox="0 0 68 68" fill="none" xmlns="http://www.w3.org/2000/svg">
<circle cx="34" cy="34" r="34" fill="#DCB472"/>
<path d="M33.9995 8C28.8572 8 23.8304 9.52487 19.5547 12.3818C15.279 15.2387 11.9465 19.2994 9.97866 24.0502C8.01078 28.8011 7.49589 34.0288 8.49911 39.0724C9.50232 44.1159 11.9786 48.7486 15.6147 52.3848C19.2509 56.0209 23.8837 58.4972 28.9272 59.5004C33.9707 60.5036 39.1984 59.9888 43.9493 58.0209C48.7002 56.053 52.7608 52.7205 55.6177 48.4448C58.4747 44.1692 59.9995 39.1423 59.9995 34C59.9922 27.1066 57.2506 20.4976 52.3763 15.6233C47.5019 10.7489 40.8929 8.00728 33.9995 8ZM33.9995 56C29.6483 56 25.3949 54.7097 21.777 52.2923C18.1591 49.8749 15.3393 46.439 13.6742 42.419C12.009 38.3991 11.5734 33.9756 12.4222 29.708C13.2711 25.4404 15.3664 21.5204 18.4432 18.4437C21.5199 15.3669 25.44 13.2716 29.7075 12.4227C33.9751 11.5738 38.3986 12.0095 42.4186 13.6747C46.4385 15.3398 49.8745 18.1596 52.2919 21.7775C54.7093 25.3953 55.9995 29.6488 55.9995 34C55.9929 39.8327 53.6729 45.4247 49.5486 49.549C45.4242 53.6734 39.8323 55.9934 33.9995 56ZM43.4145 30.585C43.6003 30.7708 43.7477 30.9914 43.8483 31.2342C43.9489 31.477 44.0006 31.7372 44.0006 32C44.0006 32.2628 43.9489 32.523 43.8483 32.7658C43.7477 33.0086 43.6003 33.2292 43.4145 33.415C43.2287 33.6008 43.0081 33.7482 42.7653 33.8488C42.5225 33.9494 42.2623 34.0011 41.9995 34.0011C41.7367 34.0011 41.4765 33.9494 41.2337 33.8488C40.9909 33.7482 40.7703 33.6008 40.5845 33.415L35.9995 28.8275V44C35.9995 44.5304 35.7888 45.0391 35.4137 45.4142C35.0387 45.7893 34.53 46 33.9995 46C33.4691 46 32.9604 45.7893 32.5853 45.4142C32.2102 45.0391 31.9995 44.5304 31.9995 44V28.8275L27.4145 33.415C27.0392 33.7903 26.5303 34.0011 25.9995 34.0011C25.4688 34.0011 24.9598 33.7903 24.5845 33.415C24.2092 33.0397 23.9984 32.5307 23.9984 32C23.9984 31.4693 24.2092 30.9603 24.5845 30.585L32.5845 22.585C32.7703 22.399 32.9908 22.2515 33.2336 22.1509C33.4764 22.0502 33.7367 21.9984 33.9995 21.9984C34.2624 21.9984 34.5226 22.0502 34.7654 22.1509C35.0082 22.2515 35.2288 22.399 35.4145 22.585L43.4145 30.585Z" fill="#232323"/>
</svg>
