<svg width="51" height="51" viewBox="0 0 51 51" fill="none" xmlns="http://www.w3.org/2000/svg">
<path d="M25.5 5C37.3546 5 47 12.8315 47 22.4595C47 26.3134 45.5084 29.7827 42.3909 33.2009C37.8813 38.3968 27.7951 44.725 25.5 45.6932C23.2694 46.6344 23.5274 45.1633 23.6295 44.5824L23.6376 44.534L23.9439 42.6918C24.0165 42.1432 24.0917 41.2906 23.8741 40.7474C23.6322 40.1476 22.6808 39.8357 21.9821 39.6851C11.6486 38.3215 4 31.0898 4 22.4595C4 12.8315 13.6481 5 25.5 5ZM17.4966 25.6707H13.3982V18.2264C13.3982 18.1156 13.3544 18.0093 13.2763 17.9307C13.1983 17.8521 13.0924 17.8076 12.9816 17.8069H11.4713C11.4162 17.8069 11.3617 17.8177 11.3108 17.8388C11.2599 17.8599 11.2137 17.8908 11.1748 17.9298C11.1359 17.9687 11.105 18.015 11.0839 18.0659C11.0628 18.1168 11.052 18.1713 11.052 18.2264V27.6016C11.052 27.7119 11.0977 27.8168 11.1702 27.8894V27.8921L11.1756 27.8975L11.181 27.9028C11.2193 27.9405 11.2646 27.9701 11.3145 27.9899C11.3643 28.0098 11.4176 28.0195 11.4713 28.0185H17.4966C17.7277 28.0185 17.9132 27.8302 17.9132 27.5989V26.0929C17.9135 26.0378 17.903 25.9832 17.8823 25.9321C17.8616 25.8811 17.831 25.8346 17.7923 25.7954C17.7536 25.7562 17.7076 25.725 17.6569 25.7036C17.6061 25.6822 17.5517 25.671 17.4966 25.6707ZM19.6224 17.8069C19.5112 17.8069 19.4046 17.8511 19.326 17.9298C19.2474 18.0084 19.2032 18.1152 19.2032 18.2264V27.6016C19.2032 27.8329 19.3913 28.0185 19.6224 28.0185H21.1328C21.3639 28.0185 21.5494 27.8302 21.5494 27.6016V18.2264C21.5494 18.1156 21.5056 18.0093 21.4275 17.9307C21.3495 17.8521 21.2435 17.8076 21.1328 17.8069H19.6224ZM30.0042 17.8069C29.8931 17.8069 29.7864 17.8511 29.7078 17.9298C29.6292 18.0084 29.585 18.1152 29.585 18.2264V23.7935L25.2931 17.9951L25.2581 17.9548L25.2313 17.9252L25.2232 17.9171L25.1936 17.8929L25.1775 17.8822L25.1694 17.8768L25.156 17.8687L25.1345 17.8553H25.1291L25.1211 17.8499L25.0942 17.8391L25.0834 17.8338L25.0566 17.8257H25.0512L25.0431 17.823L25.0189 17.8176H25.0028L24.9947 17.8149H24.984L24.9786 17.8123H23.436C23.3253 17.8123 23.219 17.8561 23.1405 17.9342C23.0619 18.0123 23.0175 18.1183 23.0168 18.2291V27.6043C23.0168 27.8356 23.2049 28.0212 23.436 28.0212H24.941C25.1748 28.0212 25.3629 27.8329 25.3629 27.6043V22.0373L29.6629 27.8464C29.6931 27.8851 29.7283 27.9194 29.7678 27.9486L29.7704 27.9513L29.7973 27.9674L29.8081 27.9728L29.8296 27.9835L29.8484 27.9916L29.8618 27.997L29.8887 28.005H29.8967C29.9319 28.014 29.968 28.0194 30.0042 28.0212H31.5093C31.7431 28.0212 31.9312 27.8329 31.9312 27.6043V18.2264C31.9312 18.1152 31.887 18.0084 31.8084 17.9298C31.7298 17.8511 31.6231 17.8069 31.5119 17.8069H30.0042ZM40.2571 19.7352V18.2291C40.2574 18.174 40.2469 18.1194 40.2262 18.0683C40.2054 18.0173 40.1749 17.9709 40.1362 17.9317C40.0975 17.8924 40.0515 17.8612 40.0007 17.8398C39.95 17.8184 39.8956 17.8072 39.8405 17.8069H33.8151C33.7069 17.8084 33.6033 17.8506 33.5249 17.9252H33.5222L33.5195 17.9306L33.5141 17.9387C33.4402 18.0165 33.398 18.1191 33.3959 18.2264V27.6016C33.3959 27.7119 33.4416 27.8168 33.5141 27.8894L33.5195 27.8975L33.5249 27.9028C33.6037 27.9764 33.7073 28.0177 33.8151 28.0185H39.8405C40.0716 28.0185 40.2571 27.8302 40.2571 27.5989V26.0929C40.2574 26.0378 40.2469 25.9832 40.2262 25.9321C40.2054 25.8811 40.1749 25.8346 40.1362 25.7954C40.0975 25.7562 40.0515 25.725 40.0007 25.7036C39.95 25.6822 39.8956 25.671 39.8405 25.6707H35.7394V24.0866H39.8378C40.0689 24.0866 40.2544 23.8983 40.2544 23.6671V22.161C40.2547 22.1059 40.2442 22.0513 40.2235 22.0002C40.2028 21.9492 40.1722 21.9028 40.1335 21.8635C40.0948 21.8243 40.0488 21.7931 39.998 21.7717C39.9473 21.7503 39.8929 21.7391 39.8378 21.7388H35.7394V20.1547H39.8378C40.0689 20.1547 40.2544 19.9665 40.2544 19.7352H40.2571Z" fill="#44002B"/>
</svg>
