<svg width="51" height="51" viewBox="0 0 51 51" fill="none" xmlns="http://www.w3.org/2000/svg">
<path d="M44.5119 17.6485C44.4905 16.039 44.1892 14.4456 43.6215 12.9395C43.1293 11.669 42.3774 10.5153 41.414 9.55185C40.4506 8.58844 39.2968 7.83659 38.0264 7.34434C36.5396 6.78622 34.9689 6.48444 33.3812 6.45184C31.3369 6.36046 30.6888 6.33496 25.4995 6.33496C20.3103 6.33496 19.6452 6.33496 17.6158 6.45184C16.0288 6.48468 14.4588 6.78646 12.9727 7.34434C11.702 7.83625 10.5481 8.58798 9.58463 9.55143C8.62118 10.5149 7.86945 11.6688 7.37754 12.9395C6.8183 14.4251 6.51718 15.9954 6.48716 17.5826C6.39579 19.629 6.36816 20.2771 6.36816 25.4663C6.36816 30.6556 6.36816 31.3186 6.48716 33.3501C6.51904 34.9396 6.81866 36.5078 7.37754 37.9975C7.87028 39.2677 8.62257 40.4212 9.58634 41.3842C10.5501 42.3473 11.7042 43.0987 12.9748 43.5905C14.4568 44.171 16.0271 44.4944 17.6179 44.5467C19.6643 44.6381 20.3124 44.6657 25.5017 44.6657C30.6909 44.6657 31.356 44.6657 33.3854 44.5467C34.9731 44.5154 36.5439 44.2144 38.0307 43.6563C39.3008 43.1635 40.4542 42.4115 41.4176 41.4481C42.3809 40.4848 43.133 39.3313 43.6258 38.0612C44.1847 36.5737 44.4843 35.0055 44.5162 33.4138C44.6075 31.3696 44.6352 30.7215 44.6352 25.5301C44.6309 20.3408 44.6309 19.6821 44.5119 17.6485ZM25.4868 35.2796C20.0595 35.2796 15.6629 30.883 15.6629 25.4557C15.6629 20.0285 20.0595 15.6318 25.4868 15.6318C28.0922 15.6318 30.591 16.6668 32.4333 18.5092C34.2757 20.3515 35.3107 22.8503 35.3107 25.4557C35.3107 28.0612 34.2757 30.5599 32.4333 32.4022C30.591 34.2446 28.0922 35.2796 25.4868 35.2796ZM35.7017 17.5592C35.4008 17.5595 35.1028 17.5004 34.8247 17.3854C34.5466 17.2704 34.294 17.1017 34.0812 16.8889C33.8685 16.6761 33.6997 16.4235 33.5847 16.1454C33.4697 15.8674 33.4106 15.5694 33.4109 15.2685C33.4109 14.9678 33.4701 14.67 33.5852 14.3922C33.7003 14.1144 33.8689 13.862 34.0816 13.6494C34.2942 13.4368 34.5466 13.2681 34.8244 13.1531C35.1022 13.038 35.3999 12.9788 35.7006 12.9788C36.0013 12.9788 36.299 13.038 36.5768 13.1531C36.8546 13.2681 37.107 13.4368 37.3197 13.6494C37.5323 13.862 37.7009 14.1144 37.816 14.3922C37.9311 14.67 37.9903 14.9678 37.9903 15.2685C37.9903 16.535 36.966 17.5592 35.7017 17.5592Z" fill="#44002B"/>
<path d="M25.4868 31.837C29.0112 31.837 31.8682 28.9799 31.8682 25.4556C31.8682 21.9313 29.0112 19.0742 25.4868 19.0742C21.9625 19.0742 19.1055 21.9313 19.1055 25.4556C19.1055 28.9799 21.9625 31.837 25.4868 31.837Z" fill="#44002B"/>
</svg>
