<svg width="51" height="51" viewBox="0 0 51 51" fill="none" xmlns="http://www.w3.org/2000/svg">
<path d="M45.8856 15.3064C45.6435 14.4084 45.1705 13.5894 44.5136 12.931C43.8567 12.2726 43.0388 11.7977 42.1413 11.5536C38.8136 10.6399 25.5005 10.625 25.5005 10.625C25.5005 10.625 12.1895 10.6101 8.85958 11.4835C7.96267 11.7388 7.14645 12.2204 6.48928 12.8821C5.83211 13.5437 5.35606 14.3631 5.10683 15.2618C4.22921 18.5895 4.22071 25.4915 4.22071 25.4915C4.22071 25.4915 4.21221 32.4275 5.08346 35.7213C5.57221 37.5424 7.00658 38.981 8.82983 39.4719C12.1916 40.3856 25.4686 40.4005 25.4686 40.4005C25.4686 40.4005 38.7817 40.4154 42.1095 39.5441C43.0073 39.3005 43.8259 38.8267 44.4845 38.1697C45.143 37.5126 45.6186 36.695 45.8643 35.7978C46.7441 32.4721 46.7505 25.5723 46.7505 25.5723C46.7505 25.5723 46.793 18.6341 45.8856 15.3064ZM21.242 31.8856L21.2526 19.1356L32.3175 25.5213L21.242 31.8856Z" fill="#44002B"/>
</svg>
