<svg width="50" height="51" viewBox="0 0 50 51" fill="none" xmlns="http://www.w3.org/2000/svg">
<path d="M40.8128 14.4378C38.736 13.9811 36.8573 12.8783 35.4463 11.2876C34.0352 9.69689 33.1644 7.70006 32.9586 5.58366V4.66699H25.7711V33.1462C25.7726 34.4098 25.3764 35.6419 24.6387 36.6679C23.901 37.6939 22.8592 38.4618 21.6608 38.8628C20.4625 39.2638 19.1683 39.2775 17.9617 38.9021C16.7551 38.5268 15.6972 37.7812 14.9378 36.7712C14.2575 35.8771 13.8409 34.8105 13.7352 33.692C13.6294 32.5735 13.8387 31.4477 14.3394 30.442C14.8401 29.4362 15.6122 28.5907 16.5685 28.0009C17.5247 27.4111 18.6268 27.1006 19.7503 27.1045C20.3716 27.1009 20.9899 27.1923 21.5836 27.3753V20.0837C20.8927 19.9981 20.1964 19.9633 19.5003 19.9795C16.9364 20.048 14.4481 20.8627 12.3401 22.3238C10.2321 23.7849 8.59591 25.829 7.63192 28.2058C6.66793 30.5826 6.41797 33.189 6.91263 35.7057C7.40729 38.2224 8.62511 40.5402 10.417 42.3753C12.2534 44.2424 14.6034 45.5214 17.1684 46.0499C19.7334 46.5784 22.3976 46.3324 24.8225 45.3432C27.2474 44.3541 29.3235 42.6664 30.787 40.4946C32.2506 38.3228 33.0354 35.765 33.042 33.1462V18.5628C35.9408 20.6335 39.417 21.7413 42.9795 21.7295V14.6462C42.2797 14.649 41.5815 14.5792 40.8961 14.4378H40.8128Z" fill="#44002B"/>
</svg>
